<svg xmlns="http://www.w3.org/2000/svg" xmlns:xlink="http://www.w3.org/1999/xlink" width="30" height="30" viewBox="0 0 30 30">
  <defs>
    <clipPath id="clip-path">
      <circle id="ellipse-15" cx="15" cy="15" r="15" transform="translate(0 0)" fill="#fff" stroke="#95989a" stroke-width="1"/>
    </clipPath>
  </defs>
  <g id="group-mask-3" clip-path="url(#clip-path)">
    <path id="twitter-square" d="M29.5,13.914a8.689,8.689,0,0,1-2.363.664,3.987,3.987,0,0,0,1.816-2.285,8.157,8.157,0,0,1-2.617,1A3.9,3.9,0,0,0,23.348,12a4.1,4.1,0,0,0-4.1,4.1,3.764,3.764,0,0,0,.1.938,11.738,11.738,0,0,1-8.477-4.3,4.062,4.062,0,0,0-.566,2.07,3.868,3.868,0,0,0,1.777,3.418,4.838,4.838,0,0,1-1.953-.508v.039a3.9,3.9,0,0,0,.977,2.607,4.1,4.1,0,0,0,2.4,1.416,3.81,3.81,0,0,1-1,.156,5.5,5.5,0,0,1-.762-.078A4.17,4.17,0,0,0,13.2,23.895a3.9,3.9,0,0,0,2.373.82,8.1,8.1,0,0,1-5.1,1.758,7.872,7.872,0,0,1-.977-.059,11.506,11.506,0,0,0,6.289,1.836,11.951,11.951,0,0,0,4.1-.693A10.565,10.565,0,0,0,23.172,25.7a23.023,23.023,0,0,0,2.354-2.676,22.1,22.1,0,0,0,1.465-3.164,11.77,11.77,0,0,0,.479-3.291,5.208,5.208,0,0,0-.02-.527A7.972,7.972,0,0,0,29.5,13.914Zm5-3.789v18.75A5.635,5.635,0,0,1,28.875,34.5H10.125A5.418,5.418,0,0,1,6.15,32.85,5.418,5.418,0,0,1,4.5,28.875V10.125A5.418,5.418,0,0,1,6.15,6.15,5.418,5.418,0,0,1,10.125,4.5h18.75A5.418,5.418,0,0,1,32.85,6.15,5.418,5.418,0,0,1,34.5,10.125Z" transform="translate(-4.5 -4.5)" fill="#679b9b"/>
  </g>
</svg>
