<svg xmlns="http://www.w3.org/2000/svg" xmlns:xlink="http://www.w3.org/1999/xlink" width="30" height="30" viewBox="0 0 30 30">
  <defs>
    <clipPath id="clip-path">
      <circle id="ellipse-15" cx="15" cy="15" r="15" transform="translate(0 0)" fill="#fff" stroke="#95989a" stroke-width="1"/>
    </clipPath>
  </defs>
  <g id="group-mask-2" clip-path="url(#clip-path)">
    <path id="facebook-official" d="M32.84,4.5A1.667,1.667,0,0,1,34.5,6.16V32.84a1.667,1.667,0,0,1-1.66,1.66H25.2V22.879H29.09l.586-4.531H25.2V15.457a2.5,2.5,0,0,1,.459-1.641,2.278,2.278,0,0,1,1.787-.547l2.383-.02V9.207a26.181,26.181,0,0,0-3.477-.176,5.8,5.8,0,0,0-4.248,1.563,5.905,5.905,0,0,0-1.592,4.414v3.34H16.609v4.531h3.906V34.5H6.16A1.667,1.667,0,0,1,4.5,32.84V6.16A1.667,1.667,0,0,1,6.16,4.5Z" transform="translate(-4.5 -4.5)" fill="#679b9b"/>
  </g>
</svg>
